<svg width="140" height="140" viewBox="0 0 140 140" fill="none" xmlns="http://www.w3.org/2000/svg">
<rect width="140" height="140" rx="34" fill="#0085FF"/>
<path d="M70 32.3964C64.9392 32.3964 59.928 33.3932 55.2525 35.3298C50.5769 37.2665 46.3286 40.1051 42.7501 43.6836C35.523 50.9108 31.4628 60.7128 31.4628 70.9335C31.4628 87.967 42.523 102.418 57.8223 107.544C59.7491 107.852 60.3657 106.658 60.3657 105.617V99.1042C49.6909 101.416 47.4172 93.9402 47.4172 93.9402C45.6445 89.4699 43.1396 88.2753 43.1396 88.2753C39.6327 85.886 43.4094 85.963 43.4094 85.963C47.2631 86.2328 49.3055 89.9324 49.3055 89.9324C52.6583 95.79 58.3232 94.0558 60.5199 93.131C60.8667 90.626 61.8687 88.9304 62.9477 87.967C54.3925 87.0035 45.4133 83.6893 45.4133 69.0067C45.4133 64.7291 46.8777 61.2992 49.3826 58.5631C48.9972 57.5997 47.6484 53.5918 49.768 48.3893C49.768 48.3893 53.0051 47.3488 60.3657 52.3201C63.4102 51.4723 66.7243 51.0484 70 51.0484C73.2757 51.0484 76.5899 51.4723 79.6343 52.3201C86.9949 47.3488 90.232 48.3893 90.232 48.3893C92.3516 53.5918 91.0028 57.5997 90.6174 58.5631C93.1223 61.2992 94.5867 64.7291 94.5867 69.0067C94.5867 83.7279 85.569 86.965 76.9752 87.9284C78.3626 89.1231 79.6343 91.4739 79.6343 95.0578V105.617C79.6343 106.658 80.2509 107.891 82.2163 107.544C97.5156 102.38 108.537 87.967 108.537 70.9335C108.537 65.8728 107.54 60.8615 105.604 56.186C103.667 51.5105 100.828 47.2621 97.2499 43.6836C93.6714 40.1051 89.4231 37.2665 84.7475 35.3298C80.072 33.3932 75.0608 32.3964 70 32.3964Z" fill="#BCDFFF" fill-opacity="0.2" stroke="white" stroke-width="3"/>
</svg>
