<svg width="27" height="27" viewBox="0 0 27 27" fill="none" xmlns="http://www.w3.org/2000/svg">
<path fill-rule="evenodd" clip-rule="evenodd" d="M12.7706 0.0327908L12.8582 0.0343211C14.8238 0.0686502 16.8016 0.103192 18.4774 0.233932C19.3212 0.299767 20.1165 0.391912 20.8145 0.527604C21.4956 0.660028 22.1681 0.849197 22.7169 1.14905C24.218 1.96926 25.4296 3.23567 26.1881 4.77385C26.5907 5.59033 26.7837 6.5797 26.8857 7.63268C26.989 8.70004 27.0076 9.9451 26.9977 11.3274L26.9973 11.3764C26.9949 11.7168 26.9925 12.0573 26.9651 12.3334C26.9398 12.5889 26.8737 13.0927 26.5076 13.5138C26.1108 13.9701 25.5238 14.2195 24.9201 14.1884C24.3617 14.1596 23.9523 13.8554 23.7515 13.6966C23.5334 13.524 23.2857 13.2884 23.0375 13.0521L19.9876 10.1501L9.29907 6.73689L6.00945 17.111L19.217 22.5723C19.2343 22.5795 19.2517 22.5867 19.269 22.5939C19.6299 22.743 19.9901 22.8918 20.2674 23.042C20.5258 23.1818 21.0295 23.4804 21.261 24.0794C21.507 24.7158 21.3937 25.4722 20.972 26.0085C20.583 26.5032 20.0349 26.6455 19.7404 26.7061C19.4388 26.7683 19.0638 26.8037 18.6969 26.8384L18.6408 26.8437C17.4358 26.9578 15.9685 27.0234 14.182 26.9922L12.3009 26.9594C10.3643 26.9256 8.8286 26.8988 7.59309 26.7735C6.32901 26.6454 5.26165 26.4053 4.29488 25.877C2.7938 25.0568 1.58219 23.7904 0.823673 22.2522C0.335837 21.2629 0.135757 20.1827 0.0530588 18.9064C-0.027837 17.6579 -0.000828656 16.1101 0.0332755 14.1557L0.0638958 12.4003C0.0979799 10.4459 0.124972 8.89806 0.249362 7.65319C0.376525 6.38056 0.61416 5.30793 1.1362 4.3363C1.9479 2.82554 3.20295 1.60221 4.73172 0.834926C5.71633 0.340757 6.79141 0.138085 8.05919 0.0541565C9.29831 -0.0278742 10.834 -0.00104424 12.7706 0.0327908ZM4.26652 22.6075C4.64622 22.9867 5.0791 23.3118 5.5537 23.5711C6.08536 23.8616 6.76057 24.0483 7.85784 24.1595C8.97113 24.2724 10.3969 24.2984 12.4059 24.3334L14.2278 24.3653C15.1133 24.3807 15.9095 24.371 16.6247 24.3434L5.21245 19.6244L4.26652 22.6075ZM2.6775 18.9145C2.67332 18.8596 2.68119 18.9716 2.6775 18.9145C2.60442 17.7867 2.62477 16.1689 2.66011 14.1431L2.68869 12.5046C2.72403 10.4788 2.75018 9.03912 2.86255 7.91455C2.97338 6.80535 3.15931 6.12022 3.44942 5.58026C3.56022 5.37403 3.683 5.17572 3.81681 4.98623L6.79721 5.93796L2.6775 18.9145ZM6.29232 3.01876L15.7518 6.03946L12.2647 2.65183C10.5253 2.62227 9.25048 2.60843 8.23261 2.67581C7.37561 2.73254 6.77282 2.84391 6.29232 3.01876ZM16.1234 2.73824L21.5839 8.04306L24.3738 10.6976C24.3735 9.60031 24.3475 8.66884 24.2717 7.88595C24.1808 6.94728 24.0269 6.32979 23.8329 5.93628C23.3123 4.8806 22.4824 4.01463 21.4581 3.45493C21.2576 3.34541 20.8921 3.21923 20.3135 3.10674C19.7517 2.99752 19.0655 2.91518 18.2732 2.85336C17.6065 2.80135 16.8846 2.76523 16.1234 2.73824Z" fill="#0085FF"/>
</svg>
