<svg width="140" height="140" viewBox="0 0 140 140" fill="none" xmlns="http://www.w3.org/2000/svg">
<rect width="140" height="140" rx="34" fill="#0085FF"/>
<path d="M90.7272 46.6696V69.0077L108 56.1206V49.247C108 42.8721 100.685 39.238 95.5639 43.0612L90.7272 46.6696Z" fill="#BCDFFF" fill-opacity="0.2"/>
<path d="M32 56.1204L49.2728 69.0077V46.6696L44.4361 43.0612C39.3061 39.2378 32 42.8722 32 49.2467V56.1204Z" fill="#BCDFFF" fill-opacity="0.2"/>
<path d="M49.2728 98.2194V69.0077L32 56.1204V93.0643C32 95.9167 34.323 98.2194 37.182 98.2194H49.2728Z" fill="#BCDFFF" fill-opacity="0.2"/>
<path d="M70 62.1346L49.2728 46.6696V69.0077L70 84.4727L90.7272 69.0077V46.6696L70 62.1346Z" fill="#BCDFFF" fill-opacity="0.2"/>
<path d="M90.7272 98.2194H102.818C105.686 98.2194 108 95.9081 108 93.0643V56.1206L90.7272 69.0077V98.2194Z" fill="#BCDFFF" fill-opacity="0.2"/>
<path d="M49.2728 69.0077V98.2194H37.182C34.323 98.2194 32 95.9167 32 93.0643V56.1204M49.2728 69.0077L70 84.4727L90.7272 69.0077M49.2728 69.0077V46.6696M49.2728 69.0077L32 56.1204M32 56.1204V49.2467C32 42.8722 39.3061 39.2378 44.4361 43.0612L49.2728 46.6696M108 56.1206V93.0643C108 95.9081 105.686 98.2194 102.818 98.2194H90.7272V69.0077M108 56.1206L90.7272 69.0077M108 56.1206V49.247C108 42.8721 100.685 39.238 95.5639 43.0612L90.7272 46.6696M90.7272 69.0077V46.6696M49.2728 46.6696L70 62.1346L90.7272 46.6696" stroke="white" stroke-width="3"/>
</svg>
