<svg width="140" height="140" viewBox="0 0 140 140" fill="none" xmlns="http://www.w3.org/2000/svg">
<rect width="140" height="140" rx="34" fill="#0085FF"/>
<path fill-rule="evenodd" clip-rule="evenodd" d="M99.046 39.1311C99.9469 38.7519 100.933 38.6212 101.902 38.7524C102.87 38.8836 103.786 39.2721 104.553 39.8773C105.321 40.4825 105.912 41.2824 106.266 42.1937C106.619 43.105 106.722 44.0943 106.563 45.0588L98.295 95.2109C97.493 100.049 92.1851 102.823 87.7484 100.413C84.0372 98.3971 78.5251 95.2911 73.5672 92.0502C71.0882 90.4279 63.4945 85.233 64.4277 81.5363C65.2298 78.3756 77.9892 66.4984 85.2804 59.4369C88.1421 56.6626 86.837 55.0622 83.4576 57.6141C75.0655 63.9501 61.5915 73.5854 57.1366 76.2977C53.2067 78.6892 51.1579 79.0975 48.708 78.6892C44.2386 77.9455 40.0936 76.7935 36.7105 75.3899C32.1389 73.4942 32.3613 67.2093 36.7068 65.3792L99.046 39.1311Z" fill="#BCDFFF" fill-opacity="0.2" stroke="white" stroke-width="3"/>
</svg>
