<svg width="140" height="140" viewBox="0 0 140 140" fill="none" xmlns="http://www.w3.org/2000/svg">
<rect width="140" height="140" rx="34" fill="#0085FF"/>
<path d="M40.74 81.6155C33.3091 72.9922 29.0304 60.4585 28.458 44.6158H40.2042C41.0942 68.65 51.9605 79.4897 61.2667 81.8163L63.1306 82.2823V80.3611V44.6155H74.0169V64.3754V66.0455L75.6773 65.8668C80.4087 65.3578 85.0753 62.4485 88.8896 58.4316C92.4721 54.6588 95.4257 49.7849 97.0834 44.6155H107.972C106.784 49.2752 104.755 53.6843 101.979 57.6233C98.8471 62.0666 94.8323 65.816 90.1855 68.6371L87.8562 70.0512L90.2969 71.2628C95.4921 73.8419 100.081 77.4944 103.759 81.9787C107.021 85.9539 109.501 90.5025 111.077 95.3846H98.9137C97.332 90.5011 94.4386 86.1372 90.5401 82.7754C86.3521 79.164 81.1907 76.8701 75.7036 76.1814L74.0169 75.9698V77.6698V95.3846H73.8483C59.4955 95.3846 48.3787 90.48 40.74 81.6155Z" fill="#BCDFFF" fill-opacity="0.2" stroke="white" stroke-width="3"/>
</svg>
